<svg preserveAspectRatio="none" overflow="visible" style="display: block;" width="12" height="12" viewBox="0 0 12 12" fill="none" xmlns="http://www.w3.org/2000/svg">
<path id="Vector 2" opacity="0.2" d="M5.99999 12C4.40918 11.9984 2.884 11.3659 1.75913 10.241C0.634256 9.11613 0.00158843 7.5908 0 5.99999C0.00190543 4.40928 0.63469 2.88437 1.75949 1.75957C2.8843 0.634764 4.40928 0.00190543 5.99999 0C7.59065 0.00206384 9.11557 0.634798 10.2403 1.75957C11.3651 2.88434 11.9979 4.40933 12 5.99999C12.0021 6.78815 11.8479 7.56872 11.5462 8.29686C11.2446 9.02501 10.8015 9.68645 10.2426 10.2422C9.68676 10.8011 9.02561 11.2441 8.29737 11.5459C7.56914 11.8476 6.78826 12.002 5.99999 12ZM5.99999 2.64023C5.10916 2.64118 4.2551 2.99527 3.62519 3.62519C2.99527 4.2551 2.64096 5.10916 2.64001 5.99999C2.64096 6.89082 2.99527 7.74488 3.62519 8.37479C4.2551 9.00471 5.10916 9.3588 5.99999 9.35975C6.89077 9.35864 7.74476 9.00467 8.37464 8.37479C9.00452 7.74491 9.35886 6.89078 9.35997 5.99999C9.35886 5.10921 9.00452 4.25507 8.37464 3.62519C7.74476 2.99531 6.89077 2.64134 5.99999 2.64023Z" fill="white" fill-opacity="0.2"/>
</svg>
l(#paint1_linear_0_1220)"/>
<path d="M3.37099 12.1532C3.49298 11.6209 4.01153 10.4557 5.30065 9.35853C5.89184 8.85539 6.55616 8.6054 7.26924 8.33706C8.11107 8.02028 9.02084 7.67792 9.95844 6.86329C12.4857 4.66747 13.0193 2.27203 13.0193 2.27203L14.5164 3.43648C14.5164 3.43648 13.851 6.13135 11.4556 8.02773C10.5128 8.77413 9.63282 9.12218 8.82321 9.44242C8.08822 9.73314 7.41122 10.0009 6.7978 10.523C5.50868 11.6201 4.99013 12.7853 4.86814 13.3177L3.37099 12.1532Z" fill="url(#paint2_linear_0_1220)"/>
</g>
</g>
<defs>
<linearGradient id="paint0_linear_0_1220" x1="12.8538" y1="1.80625" x2="1.897" y2="1.80625" gradientUnits="userSpaceOnUse">
<stop stop-color="#FEDA3B"/>
<stop offset="0.47" stop-color="#EF5541"/>
<stop offset="0.815" stop-color="#801FDB"/>
<stop offset="1" stop-color="#7E2A89"/>
</linearGradient>
<linearGradient id="paint1_linear_0_1220" x1="12.8538" y1="1.80625" x2="1.897" y2="1.80625" gradientUnits="userSpaceOnUse">
<stop stop-color="#FEDA3B"/>
<stop offset="0.47" stop-color="#EF5541"/>
<stop offset="0.815" stop-color="#801FDB"/>
<stop offset="1" stop-color="#7E2A89"/>
</linearGradient>
<linearGradient id="paint2_linear_0_1220" x1="12.8538" y1="1.80625" x2="1.897" y2="1.80625" gradientUnits="userSpaceOnUse">
<stop stop-color="#FEDA3B"/>
<stop offset="0.47" stop-color="#EF5541"/>
<stop offset="0.815" stop-color="#801FDB"/>
<stop offset="1" stop-color="#7E2A89"/>
</linearGradient>
</defs>
</svg>
