<svg preserveAspectRatio="none" overflow="visible" style="display: block;" width="14.9993" height="15" viewBox="0 0 14.9993 15" fill="none" xmlns="http://www.w3.org/2000/svg">
<g id="Group">
<path id="Vector" fill-rule="evenodd" clip-rule="evenodd" d="M7.5 0C9.30225 0 10.956 0.63525 12.249 1.695L10.9575 2.72775C9.98625 2.02275 8.7915 1.60725 7.49925 1.60725C4.24425 1.60725 1.6065 4.24575 1.6065 7.5C1.6065 10.755 4.245 13.3928 7.49925 13.3928C10.7543 13.3928 13.392 10.7543 13.392 7.5C13.392 7.425 13.3905 7.35 13.3883 7.275L14.886 6.1935C14.961 6.618 14.9993 7.0545 14.9993 7.5C14.9993 11.6423 11.6415 15 7.49925 15C3.357 15 0 11.6423 0 7.5C0 3.35775 3.35775 0 7.5 0Z" fill="url(#paint0_linear_0_293)"/>
<path id="Vector_2" fill-rule="evenodd" clip-rule="evenodd" d="M4.67848 5.67226L7.49998 7.50001L13.5885 3.0375L14.493 4.50675L7.49998 9.61726L4.67848 7.85626V5.67226Z" fill="#229E39"/>
</g>
<defs>
<linearGradient id="paint0_linear_0_293" x1="8.72477" y1="-2.96913e-07" x2="0.780501" y2="10.7104" gradientUnits="userSpaceOnUse">
<stop stop-color="#0187C8"/>
<stop offset="0.31332" stop-color="#08A652"/>
<stop offset="0.72384" stop-color="#08A652"/>
<stop offset="1" stop-color="#FAEF23"/>
</linearGradient>
</defs>
</svg>
