<svg preserveAspectRatio="none" overflow="visible" style="display: block;" width="10.4167" height="9.58333" viewBox="0 0 10.4167 9.58333" fill="none" xmlns="http://www.w3.org/2000/svg">
<g id="Group">
<path id="rect2493" d="M9.04872 0.000875454C8.76295 0.000875454 8.54654 0.190104 8.43871 0.417504L6.87297 2.99031C6.76439 3.22825 6.68515 3.49557 6.68515 3.67252C6.68515 3.83064 6.70687 3.97035 6.76493 4.09911L8.45866 8.13758H1.88155C1.64479 8.13758 1.44939 7.90023 1.44939 7.68112V0.724581C1.39963 -0.226435 0.0301604 -0.225923 0 0.754459L0.0299186 8.13758C0.0299186 8.94026 0.651646 9.58333 1.44939 9.58333H10.4167L8.23095 4.00117C8.17062 3.79335 8.14375 3.60487 8.29078 3.35714L9.73685 1.01008C9.75721 0.961136 9.78671 0.754188 9.78671 0.694703C9.75806 0.268515 9.42346 -0.0179489 9.04872 0.000875454ZM5.49838 0.0041952C5.14663 0.0065483 4.79529 0.249073 4.79529 0.724581V5.70255C4.79529 6.42541 3.82127 6.36592 3.82127 5.70255V0.724581C3.82127 -0.226435 2.41177 -0.226435 2.41177 0.724581V5.74238C2.41177 6.88993 3.27028 7.6529 4.29498 7.6529C5.34758 7.6529 6.20313 6.88993 6.20313 5.74238V0.724581C6.20313 0.239661 5.85012 0.00184211 5.49838 0.0041952Z" fill="white"/>
</g>
</svg>
